<svg xmlns="http://www.w3.org/2000/svg" viewBox="0 0 640 512"><!--!Font Awesome Free 6.7.2 by @fontawesome - https://fontawesome.com License - https://fontawesome.com/license/free Copyright 2025 Fonticons, Inc.--><path d="M636.1 390.2C614.4 308.9 580.1 231 534.1 159.1 512 124.6 498 96 454.1 96 415.4 96 384 125.4 384 161.7v60.1l-32.9-21.9a16 16 0 0 1 -7.1-13.3V16c0-8.8-7.2-16-16-16h-16c-8.8 0-16 7.2-16 16v170.6c0 5.4-2.7 10.3-7.1 13.3L256 221.8v-60.1C256 125.4 224.6 96 186 96c-44 0-57.9 28.6-80.1 63.1C59.9 231 25.6 308.9 3.9 390.2 1.3 399.8 0 409.8 0 419.8c0 61.2 62.5 105.4 125.2 88.6l59.5-16c42.2-11.3 71.3-47.5 71.3-88.6v-87.5l-85.8 57.2a8 8 0 0 1 -11.1-2.2l-8.9-13.3a8 8 0 0 1 2.2-11.1L320 235.2l167.6 111.7a8 8 0 0 1 2.2 11.1l-8.9 13.3a8 8 0 0 1 -11.1 2.2L384 316.3v87.5c0 41.2 29.1 77.3 71.3 88.6l59.5 16C577.5 525.2 640 481 640 419.8c0-10-1.3-19.9-3.9-29.6z"/></svg>